# xmcd
#
# Track frame offsets:
#	150
#	14150
#	27561
#	42811
#	62192
#	73920
#	89364
#	110767
#	123076
#	141080
#	154418
#	166527
#	184101
#	201031
#	215571
#	224402
#
# Disc length: 3195 seconds
#
# Revision: 1
# Processed by: cddbd v1.5.2PL0 Copyright (c) Steve Scherf et al.
# Submitted via: EasyCDDAExtractor 9.1.0.1
#
DISCID=f30c7910
DTITLE=Various Artist - 904 Hope Street - July 2004
DYEAR=2004
DGENRE=Gospel
TTITLE0=Mike Vaughn - I'm Going Up
TTITLE1=Branded - Water Grave
TTITLE2=Susie Luchsinger - How Sweet It Is
TTITLE3=Walt Mills - Grandaddy Finley
TTITLE4=Gene Farington - It's A Goodbye World
TTITLE5=Gina White - Beneath The Calvary Flood
TTITLE6=Paul Mills - Hold On
TTITLE7=Benny Greenlee - It's Not What's On The Door
TTITLE8=Micki Farington - Micki Farington/Creator Of Destiny
TTITLE9=Tommy Smith - I'm On My Way To Heaven
TTITLE10=Jerri Sue Baken - Walk Around Me Jesus
TTITLE11=Marvell - Run through The Rain
TTITLE12=Chief George Braswell - Jesus, You're My Hero
TTITLE13=Billy Hale - Why?
TTITLE14=Bob Smallwood - I'm Still Amazed
TTITLE15=Pat and Connie Goodson - God Bless The US Again
EXTD=YEAR: 2004
EXTT0=
EXTT1=
EXTT2=
EXTT3=
EXTT4=
EXTT5=
EXTT6=
EXTT7=
EXTT8=
EXTT9=
EXTT10=
EXTT11=
EXTT12=
EXTT13=
EXTT14=
EXTT15=
PLAYORDER=
